<svg id="visual" viewBox="0 0 900 600" width="900" height="600" xmlns="http://www.w3.org/2000/svg" xmlns:xlink="http://www.w3.org/1999/xlink" version="1.1"><g stroke-width="1" stroke-linejoin="bevel"><path d="M410 304L319 374L414 362Z" fill="#1a304d" stroke="#1a304d"></path><path d="M410 304L324 275L319 374Z" fill="#1a304d" stroke="#1a304d"></path><path d="M478 270L425 230L410 304Z" fill="#192340" stroke="#192340"></path><path d="M410 304L425 230L324 275Z" fill="#192845" stroke="#192845"></path><path d="M414 362L478 270L410 304Z" fill="#181b38" stroke="#181b38"></path><path d="M478 270L467 224L425 230Z" fill="#1d425d" stroke="#1d425d"></path><path d="M319 374L327 490L414 362Z" fill="#181b38" stroke="#181b38"></path><path d="M414 362L539 390L478 270Z" fill="#181b38" stroke="#181b38"></path><path d="M299 180L206 304L324 275Z" fill="#181f3c" stroke="#181f3c"></path><path d="M324 275L206 304L319 374Z" fill="#171733" stroke="#171733"></path><path d="M319 374L161 435L327 490Z" fill="#1b3955" stroke="#1b3955"></path><path d="M333 135L299 180L425 230Z" fill="#1b3955" stroke="#1b3955"></path><path d="M425 230L299 180L324 275Z" fill="#1c3e59" stroke="#1c3e59"></path><path d="M327 490L471 470L414 362Z" fill="#1b3551" stroke="#1b3551"></path><path d="M471 470L539 390L414 362Z" fill="#1c3e59" stroke="#1c3e59"></path><path d="M478 270L592 189L467 224Z" fill="#181b38" stroke="#181b38"></path><path d="M327 490L399 536L471 470Z" fill="#1b3551" stroke="#1b3551"></path><path d="M370 69L333 135L425 230Z" fill="#181b38" stroke="#181b38"></path><path d="M206 304L161 435L319 374Z" fill="#1a304d" stroke="#1a304d"></path><path d="M337 600L375 600L399 536Z" fill="#1a2c49" stroke="#1a2c49"></path><path d="M585 532L587 418L471 470Z" fill="#192340" stroke="#192340"></path><path d="M471 470L587 418L539 390Z" fill="#1d425d" stroke="#1d425d"></path><path d="M539 390L613 326L478 270Z" fill="#1b3551" stroke="#1b3551"></path><path d="M587 418L613 326L539 390Z" fill="#1d425d" stroke="#1d425d"></path><path d="M161 435L209 535L327 490Z" fill="#181b38" stroke="#181b38"></path><path d="M299 180L160 186L206 304Z" fill="#1b3955" stroke="#1b3955"></path><path d="M206 304L60 381L161 435Z" fill="#1b3955" stroke="#1b3955"></path><path d="M224 105L160 186L299 180Z" fill="#192845" stroke="#192845"></path><path d="M337 600L399 536L327 490Z" fill="#1a304d" stroke="#1a304d"></path><path d="M399 536L466 600L471 470Z" fill="#1c3e59" stroke="#1c3e59"></path><path d="M209 535L337 600L327 490Z" fill="#181b38" stroke="#181b38"></path><path d="M524 70L370 69L467 224Z" fill="#181f3c" stroke="#181f3c"></path><path d="M467 224L370 69L425 230Z" fill="#181f3c" stroke="#181f3c"></path><path d="M333 135L224 105L299 180Z" fill="#1a304d" stroke="#1a304d"></path><path d="M308 0L224 105L333 135Z" fill="#1b3955" stroke="#1b3955"></path><path d="M613 326L592 189L478 270Z" fill="#1a304d" stroke="#1a304d"></path><path d="M86 68L127 195L160 186Z" fill="#171733" stroke="#171733"></path><path d="M160 186L127 195L206 304Z" fill="#1b3955" stroke="#1b3955"></path><path d="M375 600L466 600L399 536Z" fill="#1b3955" stroke="#1b3955"></path><path d="M466 600L585 532L471 470Z" fill="#171733" stroke="#171733"></path><path d="M734 413L695 282L613 326Z" fill="#181f3c" stroke="#181f3c"></path><path d="M127 195L70 260L206 304Z" fill="#181b38" stroke="#181b38"></path><path d="M103 600L185 600L209 535Z" fill="#171733" stroke="#171733"></path><path d="M70 260L60 381L206 304Z" fill="#1d425d" stroke="#1d425d"></path><path d="M592 189L524 70L467 224Z" fill="#1d425d" stroke="#1d425d"></path><path d="M72 535L209 535L161 435Z" fill="#171733" stroke="#171733"></path><path d="M209 535L185 600L337 600Z" fill="#1a2c49" stroke="#1a2c49"></path><path d="M734 413L613 326L587 418Z" fill="#1a2c49" stroke="#1a2c49"></path><path d="M613 326L687 218L592 189Z" fill="#181f3c" stroke="#181f3c"></path><path d="M592 189L605 72L524 70Z" fill="#171733" stroke="#171733"></path><path d="M466 600L576 600L585 532Z" fill="#1a304d" stroke="#1a304d"></path><path d="M585 532L665 511L587 418Z" fill="#1b3955" stroke="#1b3955"></path><path d="M370 69L308 0L333 135Z" fill="#181f3c" stroke="#181f3c"></path><path d="M224 105L86 68L160 186Z" fill="#171733" stroke="#171733"></path><path d="M422 0L308 0L370 69Z" fill="#1a304d" stroke="#1a304d"></path><path d="M524 70L422 0L370 69Z" fill="#192340" stroke="#192340"></path><path d="M695 282L687 218L613 326Z" fill="#1b3551" stroke="#1b3551"></path><path d="M576 600L665 511L585 532Z" fill="#1b3955" stroke="#1b3955"></path><path d="M60 381L72 535L161 435Z" fill="#192340" stroke="#192340"></path><path d="M725 108L605 72L592 189Z" fill="#1b3551" stroke="#1b3551"></path><path d="M524 70L516 0L422 0Z" fill="#181f3c" stroke="#181f3c"></path><path d="M0 197L0 320L70 260Z" fill="#1a2c49" stroke="#1a2c49"></path><path d="M70 260L0 320L60 381Z" fill="#1a2c49" stroke="#1a2c49"></path><path d="M60 381L0 496L72 535Z" fill="#1b3551" stroke="#1b3551"></path><path d="M0 197L70 260L127 195Z" fill="#1a304d" stroke="#1a304d"></path><path d="M0 320L0 395L60 381Z" fill="#1a2c49" stroke="#1a2c49"></path><path d="M592 0L516 0L524 70Z" fill="#1b3955" stroke="#1b3955"></path><path d="M72 535L103 600L209 535Z" fill="#181f3c" stroke="#181f3c"></path><path d="M0 600L103 600L72 535Z" fill="#1a2c49" stroke="#1a2c49"></path><path d="M308 0L194 0L224 105Z" fill="#1d425d" stroke="#1d425d"></path><path d="M665 511L734 413L587 418Z" fill="#1a304d" stroke="#1a304d"></path><path d="M695 282L764 213L687 218Z" fill="#192340" stroke="#192340"></path><path d="M131 0L86 68L224 105Z" fill="#1a2c49" stroke="#1a2c49"></path><path d="M0 103L0 197L127 195Z" fill="#181b38" stroke="#181b38"></path><path d="M0 395L0 496L60 381Z" fill="#1a2c49" stroke="#1a2c49"></path><path d="M739 0L592 0L605 72Z" fill="#1d425d" stroke="#1d425d"></path><path d="M605 72L592 0L524 70Z" fill="#1a2c49" stroke="#1a2c49"></path><path d="M194 0L131 0L224 105Z" fill="#1a304d" stroke="#1a304d"></path><path d="M86 68L0 103L127 195Z" fill="#1c3e59" stroke="#1c3e59"></path><path d="M822 300L764 213L695 282Z" fill="#1b3551" stroke="#1b3551"></path><path d="M687 218L725 108L592 189Z" fill="#1c3e59" stroke="#1c3e59"></path><path d="M764 213L725 108L687 218Z" fill="#1b3551" stroke="#1b3551"></path><path d="M0 0L0 103L86 68Z" fill="#181b38" stroke="#181b38"></path><path d="M576 600L718 600L665 511Z" fill="#1b3551" stroke="#1b3551"></path><path d="M665 511L823 517L734 413Z" fill="#1b3551" stroke="#1b3551"></path><path d="M734 413L822 300L695 282Z" fill="#1a304d" stroke="#1a304d"></path><path d="M0 496L0 600L72 535Z" fill="#1d425d" stroke="#1d425d"></path><path d="M827 409L822 300L734 413Z" fill="#1b3551" stroke="#1b3551"></path><path d="M764 213L793 82L725 108Z" fill="#192845" stroke="#192845"></path><path d="M823 517L827 409L734 413Z" fill="#181f3c" stroke="#181f3c"></path><path d="M131 0L0 0L86 68Z" fill="#171733" stroke="#171733"></path><path d="M718 600L823 517L665 511Z" fill="#1a304d" stroke="#1a304d"></path><path d="M900 224L793 82L764 213Z" fill="#1c3e59" stroke="#1c3e59"></path><path d="M725 108L739 0L605 72Z" fill="#1b3551" stroke="#1b3551"></path><path d="M793 82L739 0L725 108Z" fill="#1b3551" stroke="#1b3551"></path><path d="M718 600L805 600L823 517Z" fill="#192340" stroke="#192340"></path><path d="M793 82L782 0L739 0Z" fill="#171733" stroke="#171733"></path><path d="M827 409L900 280L822 300Z" fill="#1b3955" stroke="#1b3955"></path><path d="M822 300L900 224L764 213Z" fill="#1d425d" stroke="#1d425d"></path><path d="M793 82L900 0L782 0Z" fill="#181f3c" stroke="#181f3c"></path><path d="M900 436L900 280L827 409Z" fill="#181f3c" stroke="#181f3c"></path><path d="M900 436L827 409L900 477Z" fill="#1b3955" stroke="#1b3955"></path><path d="M900 477L827 409L823 517Z" fill="#192340" stroke="#192340"></path><path d="M900 280L900 224L822 300Z" fill="#181b38" stroke="#181b38"></path><path d="M900 600L900 477L823 517Z" fill="#171733" stroke="#171733"></path><path d="M900 224L900 78L793 82Z" fill="#171733" stroke="#171733"></path><path d="M805 600L900 600L823 517Z" fill="#181f3c" stroke="#181f3c"></path><path d="M900 78L900 0L793 82Z" fill="#1b3551" stroke="#1b3551"></path></g></svg>